<svg width="340" height="196" viewBox="0 0 340 196" fill="none" xmlns="http://www.w3.org/2000/svg">
<g clip-path="url(#clip0)">
<path d="M308.049 69.0809H306.172C306.172 62.3701 301.875 56.9423 296.59 56.9423V55.0673C302.912 55.0673 308.049 61.3832 308.049 69.0809Z" fill="#D1D1D1"/>
<path d="M308.049 69.0809H306.172C306.172 61.3339 311.309 55.0673 317.632 55.0673V56.9423C312.347 56.9423 308.049 62.4195 308.049 69.0809Z" fill="#D1D1D1"/>
<path d="M316.682 -0.0223999L316.184 195.033L318.061 195.038L318.559 -0.0176142L316.682 -0.0223999Z" fill="#D1D1D1"/>
<path d="M306.149 -0.0343628L305.651 195.021L307.528 195.026L308.026 -0.0295771L306.149 -0.0343628Z" fill="#D1D1D1"/>
<path d="M326.985 0.0067749L326.487 195.062L328.364 195.067L328.862 0.0115606L326.985 0.0067749Z" fill="#D1D1D1"/>
<path d="M308.049 58.6695H306.172C306.172 51.9587 301.875 46.5309 296.59 46.5309V44.6559C302.912 44.6559 308.049 50.9719 308.049 58.6695Z" fill="#D1D1D1"/>
<path d="M308.049 58.6695H306.172C306.172 50.9225 311.309 44.6559 317.632 44.6559V46.5309C312.347 46.5803 308.049 52.0081 308.049 58.6695Z" fill="#D1D1D1"/>
<path d="M308.049 47.9619H306.172C306.172 41.2512 301.875 35.8234 296.59 35.8234V33.9484C302.912 33.9484 308.049 40.2643 308.049 47.9619Z" fill="#D1D1D1"/>
<path d="M308.049 47.9619H306.172C306.172 40.215 311.309 33.9484 317.632 33.9484V35.8234C312.347 35.8234 308.049 41.3006 308.049 47.9619Z" fill="#D1D1D1"/>
<path d="M328.894 69.0809H327.017C327.017 62.3701 322.719 56.9423 317.434 56.9423V55.0673C323.757 55.0673 328.894 61.3832 328.894 69.0809Z" fill="#D1D1D1"/>
<path d="M328.894 69.0809H327.017C327.017 61.3339 332.154 55.0673 338.476 55.0673V56.9423C333.191 56.9423 328.894 62.4195 328.894 69.0809Z" fill="#D1D1D1"/>
<path d="M328.894 58.6695H327.017C327.017 51.9587 322.719 46.5309 317.434 46.5309V44.6559C323.757 44.6559 328.894 50.9719 328.894 58.6695Z" fill="#D1D1D1"/>
<path d="M328.894 58.6695H327.017C327.017 50.9225 332.154 44.6559 338.476 44.6559V46.5309C333.191 46.5803 328.894 52.0081 328.894 58.6695Z" fill="#D1D1D1"/>
<path d="M328.894 47.9619H327.017C327.017 41.2512 322.719 35.8234 317.434 35.8234V33.9484C323.757 33.9484 328.894 40.2643 328.894 47.9619Z" fill="#D1D1D1"/>
<path d="M328.894 47.9619H327.017C327.017 40.215 332.154 33.9484 338.476 33.9484V35.8234C333.191 35.8234 328.894 41.3006 328.894 47.9619Z" fill="#D1D1D1"/>
<path d="M308.049 37.5997H306.172C306.172 30.889 301.875 25.4612 296.59 25.4612V23.5862C302.912 23.5862 308.049 29.9022 308.049 37.5997Z" fill="#D1D1D1"/>
<path d="M308.049 37.5997H306.172C306.172 29.8528 311.309 23.5862 317.632 23.5862V25.4612C312.347 25.4612 308.049 30.9384 308.049 37.5997Z" fill="#D1D1D1"/>
<path d="M328.894 37.5997H327.017C327.017 30.889 322.719 25.4612 317.434 25.4612V23.5862C323.757 23.5862 328.894 29.9022 328.894 37.5997Z" fill="#D1D1D1"/>
<path d="M328.894 37.5997H327.017C327.017 29.8528 332.154 23.5862 338.476 23.5862V25.4612C333.191 25.4612 328.894 30.9384 328.894 37.5997Z" fill="#D1D1D1"/>
<path d="M338.575 68.1433H296.688V70.0184H338.575V68.1433Z" fill="#D1D1D1"/>
<path d="M337.62 -0.0271301L337.122 195.028L338.999 195.033L339.497 -0.0223444L337.62 -0.0271301Z" fill="#D1D1D1"/>
<path d="M295.744 -0.0173035L295.245 195.038L297.122 195.043L297.621 -0.0125177L295.744 -0.0173035Z" fill="#D1D1D1"/>
<path d="M256.284 55.8075H257.272C257.371 56.2022 257.667 56.8931 258.359 56.8931C259.05 56.8931 259.396 56.2516 259.544 55.8075H260.433C260.433 56.9424 259.495 57.9293 258.359 57.9293C257.074 57.9293 256.284 56.9917 256.284 55.8075Z" fill="#D1D1D1"/>
<path d="M136.009 58.9163H143.962V60.5939H137.985V63.3572H143.171V64.9855H137.985V68.0448H143.962V69.7718H136.009V58.9163Z" fill="#D1D1D1"/>
<path d="M79.9963 63.9492L77.082 58.8668H79.1072L81.0336 62.5676L82.96 58.8668H84.8863L82.0215 63.9986L85.3803 69.7717H83.2563L80.9348 65.5282L78.7121 69.7717H76.6869L79.9963 63.9492Z" fill="#D1D1D1"/>
<path d="M104.397 69.7224L104.595 67.9954C104.792 68.0941 104.99 68.0941 105.237 68.0941C106.62 68.0941 107.311 66.6631 107.311 61.9755V58.8668H114.375V69.7224H112.547V60.5445H109.089V62.2222C109.089 67.502 108.151 69.8211 105.681 69.8211C105.237 69.8704 104.693 69.8211 104.397 69.7224Z" fill="#D1D1D1"/>
<path d="M165.448 58.9163H172.166V60.5446H167.128V63.3572H169.35C171.326 63.3572 172.808 64.2947 172.808 66.5645C172.808 68.785 171.326 69.7718 169.35 69.7718H165.448V58.9163ZM169.153 68.1435C170.338 68.1435 171.129 67.6501 171.129 66.5645C171.129 65.5283 170.388 64.9855 169.153 64.9855H167.128V68.1928H169.153V68.1435Z" fill="#D1D1D1"/>
<path d="M193.85 58.9163H195.529V63.3078H199.925V58.9163H201.605V69.7718H199.925V64.9362H195.529V69.7718H193.85V58.9163Z" fill="#D1D1D1"/>
<path d="M223.486 58.9163H225.166V63.2092H226.549C228.574 63.2092 230.105 64.196 230.105 66.4658C230.105 68.7356 228.574 69.7718 226.598 69.7718H223.486V58.9163ZM226.401 68.1435C227.586 68.1435 228.376 67.6501 228.376 66.5152C228.376 65.4296 227.636 64.8375 226.401 64.8375H225.116V68.1435H226.401ZM231.389 58.9163H233.069V69.7718H231.389V58.9163Z" fill="#D1D1D1"/>
<path d="M254.456 58.9163H256.136V66.8606H256.185L260.581 58.9163H262.409V69.7718H260.729V61.8769H260.68L256.284 69.7718H254.456V58.9163Z" fill="#D1D1D1"/>
<path d="M13.3142 69.0809H11.4372C11.4372 62.3701 7.13992 56.9423 1.85474 56.9423V55.0673C8.17719 55.0673 13.3142 61.3832 13.3142 69.0809Z" fill="#D1D1D1"/>
<path d="M13.3141 69.0809H11.4371C11.4371 61.3339 16.5741 55.0673 22.8966 55.0673V56.9423C17.6114 56.9423 13.3141 62.4195 13.3141 69.0809Z" fill="#D1D1D1"/>
<path d="M21.9404 -0.0278931L21.442 195.027L23.319 195.032L23.8173 -0.0231073L21.9404 -0.0278931Z" fill="#D1D1D1"/>
<path d="M11.4073 0.00959778L10.9089 195.065L12.7859 195.069L13.2843 0.0143835L11.4073 0.00959778Z" fill="#D1D1D1"/>
<path d="M32.2436 0.00140381L31.7452 195.057L33.6222 195.061L34.1206 0.00618954L32.2436 0.00140381Z" fill="#D1D1D1"/>
<path d="M13.3142 58.6695H11.4372C11.4372 51.9587 7.13992 46.5309 1.85474 46.5309V44.6559C8.17719 44.6559 13.3142 50.9719 13.3142 58.6695Z" fill="#D1D1D1"/>
<path d="M13.3141 58.6695H11.4371C11.4371 50.9225 16.5741 44.6559 22.8966 44.6559V46.5309C17.6114 46.5803 13.3141 52.0081 13.3141 58.6695Z" fill="#D1D1D1"/>
<path d="M13.3142 47.9618H11.4372C11.4372 41.2511 7.13992 35.8233 1.85474 35.8233V33.9482C8.17719 33.9482 13.3142 40.2642 13.3142 47.9618Z" fill="#D1D1D1"/>
<path d="M13.3141 47.9618H11.4371C11.4371 40.2149 16.5741 33.9482 22.8966 33.9482V35.8233C17.6114 35.8233 13.3141 41.3004 13.3141 47.9618Z" fill="#D1D1D1"/>
<path d="M34.1585 69.0809H32.2816C32.2816 62.3701 27.9843 56.9423 22.6991 56.9423V55.0673C29.0216 55.0673 34.1585 61.3832 34.1585 69.0809Z" fill="#D1D1D1"/>
<path d="M34.1586 69.0809H32.2816C32.2816 61.3339 37.4186 55.0673 43.7411 55.0673V56.9423C38.4559 56.9423 34.1586 62.4195 34.1586 69.0809Z" fill="#D1D1D1"/>
<path d="M34.1585 58.6695H32.2816C32.2816 51.9587 27.9843 46.5309 22.6991 46.5309V44.6559C29.0216 44.6559 34.1585 50.9719 34.1585 58.6695Z" fill="#D1D1D1"/>
<path d="M34.1586 58.6695H32.2816C32.2816 50.9225 37.4186 44.6559 43.7411 44.6559V46.5309C38.4559 46.5803 34.1586 52.0081 34.1586 58.6695Z" fill="#D1D1D1"/>
<path d="M34.1585 47.9618H32.2816C32.2816 41.2511 27.9843 35.8233 22.6991 35.8233V33.9482C29.0216 33.9482 34.1585 40.2642 34.1585 47.9618Z" fill="#D1D1D1"/>
<path d="M34.1586 47.9618H32.2816C32.2816 40.2149 37.4186 33.9482 43.7411 33.9482V35.8233C38.4559 35.8233 34.1586 41.3004 34.1586 47.9618Z" fill="#D1D1D1"/>
<path d="M13.3142 37.5998H11.4372C11.4372 30.889 7.13992 25.4612 1.85474 25.4612V23.5862C8.17719 23.5862 13.3142 29.9022 13.3142 37.5998Z" fill="#D1D1D1"/>
<path d="M13.3141 37.5997H11.4371C11.4371 29.8528 16.5741 23.5862 22.8966 23.5862V25.4612C17.6114 25.4612 13.3141 30.9384 13.3141 37.5997Z" fill="#D1D1D1"/>
<path d="M34.1585 37.5998H32.2816C32.2816 30.889 27.9843 25.4612 22.6991 25.4612V23.5862C29.0216 23.5862 34.1585 29.9022 34.1585 37.5998Z" fill="#D1D1D1"/>
<path d="M34.1586 37.5997H32.2816C32.2816 29.8528 37.4186 23.5862 43.7411 23.5862V25.4612C38.4559 25.4612 34.1586 30.9384 34.1586 37.5997Z" fill="#D1D1D1"/>
<path d="M43.8396 68.1434H1.95337V70.0185H43.8396V68.1434Z" fill="#D1D1D1"/>
<path d="M42.8787 -0.0325165L42.3804 195.023L44.2573 195.027L44.7557 -0.0277307L42.8787 -0.0325165Z" fill="#D1D1D1"/>
<path d="M1.00177 -0.022934L0.503418 195.032L2.3804 195.037L2.87875 -0.0181482L1.00177 -0.022934Z" fill="#D1D1D1"/>
</g>
<defs>
<clipPath id="clip0">
<rect width="338.992" height="195.055" fill="white" transform="translate(0.520996)"/>
</clipPath>
</defs>
</svg>
